<svg xmlns="http://www.w3.org/2000/svg" width="908" height="512.071" viewBox="0 0 908 512.071">
  <g id="Empty" transform="translate(-506.5 -355.929)">
    <g id="know-how" transform="translate(755.731 348.907)" opacity="0.44">
      <path id="Path_147" data-name="Path 147" d="M391.578,281.42l-50.664-51.862a24.225,24.225,0,0,0-17.147-7.336c-.094,0-.194,0-.291,0-.436,0-.866.039-1.3.061l-13.565-13.885a103.6,103.6,0,0,0-8.894-134.4,104.833,104.833,0,0,0-8.212-7.54V30.84a19.841,19.841,0,0,0-19.819-19.819H48.844A19.841,19.841,0,0,0,29.025,30.84v8.635H19.5a14.39,14.39,0,0,0,0,28.781h9.524V84.767H19.5a14.39,14.39,0,0,0,0,28.781h9.524v16.511H19.5a14.392,14.392,0,0,0,0,28.784h9.524V175.35H19.5a14.392,14.392,0,0,0,0,28.784h9.524v16.508H19.5a14.39,14.39,0,0,0,0,28.781h9.524V265.93H19.5a14.39,14.39,0,0,0,0,28.781h9.524v14.3H19.5a14.39,14.39,0,0,0,0,28.781h9.524v10.554a17.918,17.918,0,0,0,17.9,17.9H267.514a24.023,24.023,0,0,0,24-24V236.836l7.7,7.886c-.039.53-.09,1.056-.1,1.589a24.211,24.211,0,0,0,6.936,17.312l50.664,51.856a24.208,24.208,0,0,0,17.147,7.34h.294a24.368,24.368,0,0,0,17.422-41.4Z" transform="translate(8.922 8.92)" fill="#e6e7e8"/>
      <path id="Path_148" data-name="Path 148" d="M244.773,356.779H24.188A14.673,14.673,0,0,1,9.515,342.106V24.61A16.589,16.589,0,0,1,26.1,8.021H248.95A16.589,16.589,0,0,1,265.539,24.61v311.4a20.763,20.763,0,0,1-20.766,20.769Z" transform="translate(18.741 2.228)" fill="#6dc9f7"/>
      <path id="Path_149" data-name="Path 149" d="M248.95,8.021H26.1A16.589,16.589,0,0,0,9.515,24.61V34.3A16.589,16.589,0,0,1,26.1,17.713H248.95A16.589,16.589,0,0,1,265.539,34.3V24.61A16.586,16.586,0,0,0,248.95,8.021Z" transform="translate(18.741 2.228)" fill="#fff"/>
      <g id="Group_56" data-name="Group 56" transform="translate(4.344 38.707)">
        <path id="Path_150" data-name="Path 150" d="M38.779,39.146H13.271a11.158,11.158,0,1,1,0-22.316H38.779a11.158,11.158,0,1,1,0,22.316Z" transform="translate(-2.113 -16.83)" fill="#0089ef"/>
        <path id="Path_151" data-name="Path 151" d="M38.779,53.166H13.271a11.158,11.158,0,1,1,0-22.316H38.779a11.158,11.158,0,1,1,0,22.316Z" transform="translate(-2.113 14.442)" fill="#0089ef"/>
        <path id="Path_152" data-name="Path 152" d="M38.779,67.185H13.271a11.158,11.158,0,1,1,0-22.316H38.779a11.158,11.158,0,1,1,0,22.316Z" transform="translate(-2.113 45.711)" fill="#0089ef"/>
        <path id="Path_153" data-name="Path 153" d="M38.779,81.205H13.271a11.158,11.158,0,0,1,0-22.316H38.779a11.158,11.158,0,0,1,0,22.316Z" transform="translate(-2.113 76.983)" fill="#0089ef"/>
        <path id="Path_154" data-name="Path 154" d="M38.779,95.224H13.271a11.158,11.158,0,0,1,0-22.316H38.779a11.158,11.158,0,0,1,0,22.316Z" transform="translate(-2.113 108.252)" fill="#0089ef"/>
        <path id="Path_155" data-name="Path 155" d="M38.779,109.244H13.271a11.158,11.158,0,1,1,0-22.316H38.779a11.158,11.158,0,1,1,0,22.316Z" transform="translate(-2.113 139.524)" fill="#0089ef"/>
        <path id="Path_156" data-name="Path 156" d="M38.779,122.579H13.271a11.158,11.158,0,0,1,0-22.316H38.779a11.158,11.158,0,0,1,0,22.316Z" transform="translate(-2.113 169.267)" fill="#0089ef"/>
      </g>
      <path id="Path_157" data-name="Path 157" d="M110.79,91.031a21.02,21.02,0,0,1,12.221-5.841l-16.608-17a101.443,101.443,0,0,1-8.567,9.546,101.575,101.575,0,0,1-9.782,8.373l16.611,17.005a21.017,21.017,0,0,1,6.125-12.085Z" transform="translate(193.922 136.437)" fill="#ffd7e5"/>
      <circle id="Ellipse_21" data-name="Ellipse 21" cx="100.362" cy="100.362" r="100.362" transform="translate(86.384 185.517) rotate(-62.743)" fill="#fa759e"/>
      <circle id="Ellipse_22" data-name="Ellipse 22" cx="76.944" cy="76.944" r="76.944" transform="translate(118.376 176.545) rotate(-63.332)" fill="#d4fbff"/>
      <path id="Path_158" data-name="Path 158" d="M180.043,131.624,129.379,79.765a21.138,21.138,0,1,0-30.241,29.543L149.8,161.167a21.138,21.138,0,0,0,30.241-29.543Z" transform="translate(205.225 148.052)" fill="#0089ef"/>
      <path id="Path_159" data-name="Path 159" d="M56.792,63.734a27.974,27.974,0,0,1,4.723-14.9A36.288,36.288,0,0,1,75.3,36.33,43.361,43.361,0,0,1,96.43,31.374a45.13,45.13,0,0,1,19.822,4.142A32.159,32.159,0,0,1,129.53,46.78a27.638,27.638,0,0,1,4.684,15.481A23.949,23.949,0,0,1,131.543,73.8a35.336,35.336,0,0,1-6.348,8.554q-3.678,3.6-13.2,12.114a53.627,53.627,0,0,0-4.219,4.222,17.08,17.08,0,0,0-2.358,3.327,16.4,16.4,0,0,0-1.2,3.017c-.281,1.008-.711,2.775-1.276,5.3q-1.473,8.054-9.213,8.05a9.417,9.417,0,0,1-6.774-2.633Q84.2,113.12,84.2,107.934a28.832,28.832,0,0,1,2.013-11.265,28.445,28.445,0,0,1,5.343-8.361,121.853,121.853,0,0,1,8.984-8.554q4.952-4.337,7.162-6.542a22.2,22.2,0,0,0,3.715-4.917,11.871,11.871,0,0,0,1.512-5.883,13.683,13.683,0,0,0-4.607-10.451Q103.713,47.7,96.433,47.7q-8.514,0-12.541,4.3t-6.81,12.657q-2.636,8.747-9.989,8.748a9.807,9.807,0,0,1-7.314-3.059A9.293,9.293,0,0,1,56.792,63.734Zm37.777,84.852a12.189,12.189,0,0,1-8.247-3.059q-3.523-3.058-3.521-8.554a11.016,11.016,0,0,1,3.4-8.205,11.506,11.506,0,0,1,8.364-3.327A11.365,11.365,0,0,1,106.1,136.973a10.808,10.808,0,0,1-3.482,8.516A11.753,11.753,0,0,1,94.569,148.586Z" transform="translate(124.192 54.317)" fill="#6dc9f7"/>
      <path id="Path_160" data-name="Path 160" d="M97.73,114.978H59.023a3.23,3.23,0,0,0,0,6.461H97.73a3.23,3.23,0,1,0,0-6.461Z" transform="translate(121.962 240.796)" fill="#3a2c60"/>
      <path id="Path_161" data-name="Path 161" d="M31.619,93.872H177.469a3.23,3.23,0,1,0,0-6.461H31.618a3.23,3.23,0,0,0,0,6.461Z" transform="translate(60.837 179.308)" fill="#3a2c60"/>
      <path id="Path_162" data-name="Path 162" d="M111.008,100.365H31.619a3.23,3.23,0,1,0,0,6.461H111a3.231,3.231,0,0,0,0-6.461Z" transform="translate(60.837 208.202)" fill="#3a2c60"/>
      <path id="Path_163" data-name="Path 163" d="M182.051,48.225a80.174,80.174,0,1,0-58.281,136.2c.323,0,.636.006.959.006a80.175,80.175,0,0,0,57.322-136.2ZM176.214,156.98a73.2,73.2,0,0,1-51.488,20.989c-.3,0-.591,0-.882-.006a73.715,73.715,0,1,1,52.37-20.982Z" transform="translate(96.92 38.132)" fill="#3a2c60"/>
      <path id="Path_164" data-name="Path 164" d="M387.578,277.418l-50.664-51.862a24.288,24.288,0,0,0-18.724-7.269l-13.575-13.894A103.524,103.524,0,0,0,287.51,62.454V26.841A19.841,19.841,0,0,0,267.691,7.022H44.844A19.841,19.841,0,0,0,25.025,26.841v8.632H15.5a14.392,14.392,0,0,0,0,28.784h9.524V80.765H15.5a14.392,14.392,0,0,0,0,28.784h9.524v16.508H15.5a14.392,14.392,0,0,0,0,28.784h9.524v16.511H15.5a14.39,14.39,0,0,0,0,28.781h9.524v16.508H15.5a14.39,14.39,0,0,0,0,28.781h9.524v16.508H15.5a14.39,14.39,0,0,0,0,28.781h9.524v14.3H15.5a14.39,14.39,0,0,0,0,28.781h9.524v10.554a17.918,17.918,0,0,0,17.9,17.9H164.276a3.23,3.23,0,1,0,0-6.461H42.925a11.454,11.454,0,0,1-11.439-11.439V333.787h9.52a14.39,14.39,0,1,0,0-28.781h-9.52v-14.3h9.52a14.39,14.39,0,1,0,0-28.781h-9.52V245.42h9.52a14.39,14.39,0,1,0,0-28.781h-9.52V200.132h9.52a14.39,14.39,0,1,0,0-28.781h-9.52V154.84h9.52a14.392,14.392,0,1,0,0-28.784h-9.52V109.548h9.52a14.392,14.392,0,0,0,0-28.784h-9.52V64.257h9.52a14.392,14.392,0,0,0,0-28.784h-9.52V26.841A13.371,13.371,0,0,1,44.844,13.483H267.691a13.373,13.373,0,0,1,13.358,13.358V57.553a103.836,103.836,0,0,0-118.773-.065H92.455a3.23,3.23,0,1,0,0,6.461h61.522c-1.612,1.392-3.2,2.823-4.749,4.332a103.552,103.552,0,0,0-21.861,31.052H92.455a3.23,3.23,0,0,0,0,6.461h32.2a103.669,103.669,0,0,0-6.626,35.38v.006H92.455a3.23,3.23,0,0,0,0,6.461H118.18a102.967,102.967,0,0,0,8.128,35.387H92.455a3.23,3.23,0,1,0,0,6.461h36.863a104.671,104.671,0,0,0,29.611,35.387H92.455a3.23,3.23,0,0,0,0,6.461h76.03a102.939,102.939,0,0,0,51.927,14.634c.413,0,.827.006,1.241.006a102.776,102.776,0,0,0,59.4-18.743v111.01a17.555,17.555,0,0,1-17.535,17.535H235.076a3.23,3.23,0,1,0,0,6.461h28.438a24.023,24.023,0,0,0,24-24V232.834l7.711,7.892a24.292,24.292,0,0,0,6.832,18.892l50.664,51.859a24.212,24.212,0,0,0,17.147,7.336h.294a24.365,24.365,0,0,0,17.419-41.4ZM48.941,319.4a7.938,7.938,0,0,1-7.931,7.928H15.5a7.929,7.929,0,0,1,0-15.859H41.01A7.941,7.941,0,0,1,48.941,319.4Zm0-43.079a7.938,7.938,0,0,1-7.931,7.928H15.5a7.929,7.929,0,0,1,0-15.859H41.01A7.941,7.941,0,0,1,48.941,276.316Zm0-45.292a7.938,7.938,0,0,1-7.931,7.928H15.5a7.929,7.929,0,0,1,0-15.859H41.01A7.943,7.943,0,0,1,48.941,231.025Zm0-45.292a7.941,7.941,0,0,1-7.931,7.931H15.5a7.929,7.929,0,0,1,0-15.859H41.01a7.94,7.94,0,0,1,7.931,7.928Zm0-45.288a7.941,7.941,0,0,1-7.931,7.931H15.5a7.931,7.931,0,0,1,0-15.862H41.01A7.941,7.941,0,0,1,48.941,140.445Zm0-45.292a7.941,7.941,0,0,1-7.931,7.931H15.5a7.931,7.931,0,0,1,0-15.862H41.01a7.945,7.945,0,0,1,7.931,7.931Zm0-45.288A7.941,7.941,0,0,1,41.01,57.8H15.5a7.931,7.931,0,0,1,0-15.862H41.01A7.941,7.941,0,0,1,48.941,49.865Zm103.2,160.394A97.133,97.133,0,1,1,289.5,211.868a97.242,97.242,0,0,1-137.358-1.609Zm134.68,12.625q3.717-3.019,7.194-6.4,3.45-3.373,6.532-7.007l10.15,10.393a24.289,24.289,0,0,0-13.726,13.407Zm95.836,84.374a17.777,17.777,0,0,1-12.505,5.095h-.213a17.8,17.8,0,0,1-12.6-5.395L306.673,255.1A17.909,17.909,0,0,1,332.3,230.072l50.664,51.862a17.9,17.9,0,0,1-.3,25.324Z" transform="translate(0 0)" fill="#3a2c60"/>
      <path id="Path_165" data-name="Path 165" d="M78.838,59.491a14.689,14.689,0,0,0-10.619,4.248,14.2,14.2,0,0,0-4.374,10.515c0,4.626,1.557,8.328,4.633,11A15.4,15.4,0,0,0,78.841,89.1a14.934,14.934,0,0,0,10.2-3.915A13.946,13.946,0,0,0,93.6,74.254,14.59,14.59,0,0,0,78.838,59.491ZM84.743,80.36a8.561,8.561,0,0,1-5.905,2.281,8.972,8.972,0,0,1-6.128-2.268,7.6,7.6,0,0,1-2.4-6.115,7.849,7.849,0,0,1,2.429-5.9,8.347,8.347,0,0,1,6.106-2.41,8.135,8.135,0,0,1,8.3,8.3,7.691,7.691,0,0,1-2.4,6.106Z" transform="translate(139.924 117.032)" fill="#3a2c60"/>
      <path id="Path_166" data-name="Path 166" d="M119.88,34.835a48.5,48.5,0,0,0-21.221-4.461,46.732,46.732,0,0,0-22.681,5.353A39.639,39.639,0,0,0,61.007,49.35a31.263,31.263,0,0,0-5.214,16.614,12.5,12.5,0,0,0,3.9,8.874,12.972,12.972,0,0,0,9.627,4.035c4.448,0,10.328-1.916,13.058-10.958,1.7-5.1,3.751-8.961,6.106-11.468,2.035-2.174,5.456-3.276,10.179-3.276,4.045,0,7.214,1.111,9.691,3.4a10.491,10.491,0,0,1,3.566,8.079,8.594,8.594,0,0,1-1.1,4.309,19.148,19.148,0,0,1-3.172,4.2c-1.441,1.438-3.8,3.589-7.01,6.4a126.123,126.123,0,0,0-9.22,8.79,30.688,30.688,0,0,0-8.218,21.822c0,4.358,1.263,7.773,3.747,10.15a12.58,12.58,0,0,0,9.007,3.528c6.729,0,11.129-3.8,12.363-10.573.552-2.452.966-4.167,1.237-5.133a12.676,12.676,0,0,1,.969-2.423,13.951,13.951,0,0,1,1.919-2.675,50.327,50.327,0,0,1,3.935-3.938c6.329-5.657,10.806-9.766,13.313-12.218a38.75,38.75,0,0,0,6.929-9.326,27.2,27.2,0,0,0,3.059-13.071,30.93,30.93,0,0,0-5.214-17.257,35.537,35.537,0,0,0-14.579-12.4ZM130.922,74.5a32.261,32.261,0,0,1-5.76,7.776c-2.436,2.381-6.842,6.425-13.122,12.04a57.49,57.49,0,0,0-4.477,4.484,19.972,19.972,0,0,0-2.8,3.974,19.611,19.611,0,0,0-1.438,3.628c-.291,1.037-.737,2.856-1.344,5.589-.7,3.838-2.452,5.4-6.035,5.4a6.163,6.163,0,0,1-4.539-1.735c-1.163-1.115-1.754-2.959-1.754-5.482a25.785,25.785,0,0,1,1.761-10.008,25.368,25.368,0,0,1,4.739-7.424,119.638,119.638,0,0,1,8.735-8.319c3.314-2.9,5.776-5.149,7.32-6.69a25.343,25.343,0,0,0,4.251-5.624,15.1,15.1,0,0,0,1.919-7.456,16.863,16.863,0,0,0-5.644-12.825,20.024,20.024,0,0,0-14.075-5.117c-6.581,0-11.594,1.79-14.9,5.317-2.995,3.192-5.524,7.85-7.546,13.933-1.725,5.718-4.594,6.451-6.9,6.451a6.57,6.57,0,0,1-5-2.08,6.217,6.217,0,0,1-2.064-4.368,24.943,24.943,0,0,1,4.232-13.19A33.319,33.319,0,0,1,79.075,41.393a40.37,40.37,0,0,1,19.587-4.561,42.152,42.152,0,0,1,18.417,3.822,29.112,29.112,0,0,1,11.982,10.131,24.263,24.263,0,0,1,4.151,13.707,20.923,20.923,0,0,1-2.29,10.008Z" transform="translate(121.964 52.087)" fill="#3a2c60"/>
    </g>
    <text id="Nothing_In_Your_Lists_Yet_" data-name="Nothing In Your Lists Yet!!" transform="translate(506.5 849)" fill="#fff" font-size="79" font-family="MaiandraGD-Regular, Maiandra GD" opacity="0.45"><tspan x="0" y="0">Nothing In Your Lists Yet!!</tspan></text>
  </g>
</svg>
