<?xml version="1.0" encoding="iso-8859-1"?>
<!-- Generator: Adobe Illustrator 19.0.0, SVG Export Plug-In . SVG Version: 6.00 Build 0)  -->
<svg version="1.1" id="Layer_1" xmlns="http://www.w3.org/2000/svg" xmlns:xlink="http://www.w3.org/1999/xlink" x="0px" y="0px"
	 viewBox="0 0 512 512" style="enable-background:new 0 0 512 512;" xml:space="preserve">
<path style="fill:#A8A5A4;" d="M375.467,128c-0.017,40.021-20.07,77.372-53.419,99.499c-12.527,8.311-26.556,14.114-41.301,17.067
	c-64.572,13.551-127.906-27.81-141.457-92.39c-11.409-54.4,16.205-109.483,66.62-132.89c59.904-27.665,130.884-1.536,158.549,58.368
	C371.746,93.432,375.501,110.618,375.467,128z"/>
<path style="fill:#BDBDBD;" d="M349.867,136.533c-0.017,40.021-20.07,77.372-53.419,99.499c-4.992,3.268-10.24,6.127-15.701,8.533
	c-64.572,13.551-127.906-27.81-141.457-92.39c-11.409-54.4,16.205-109.483,66.62-132.89c8.064-1.562,16.273-2.304,24.491-2.219
	C296.38,17.067,349.867,70.554,349.867,136.533z"/>
<path d="M256,256c-70.69,0.077-128.06-57.165-128.145-127.855C127.778,57.446,185.02,0.077,255.718,0s128.06,57.165,128.145,127.855
	c0.051,42.897-21.393,82.97-57.114,106.726C305.801,248.568,281.182,256.017,256,256z M256,17.067
	c-61.269,0-110.933,49.664-110.933,110.933S194.731,238.933,256,238.933S366.933,189.269,366.933,128S317.269,17.067,256,17.067z"/>
<g>
	<path style="fill:#555656;" d="M418.133,375.467v128H93.867v-128c0.009-63.991,37.649-121.984,96.085-148.053
		c40.03,26.556,92.066,26.556,132.096,0C380.484,253.483,418.125,311.475,418.133,375.467z"/>
	<path style="fill:#555656;" d="M409.6,375.467v128H85.333v-128c0.009-63.991,37.649-121.984,96.085-148.053
		c39.817,26.334,91.511,26.334,131.328,0h0.768C371.951,253.483,409.591,311.475,409.6,375.467z"/>
</g>
<path style="fill:#717272;" d="M384,368.811v134.656H93.867v-128c-0.478-63.351,35.985-121.182,93.355-148.053
	c38.545,26.522,89.455,26.522,128,0C359.364,260.898,384.905,313.412,384,368.811z"/>
<path d="M418.133,512H93.867c-4.71,0-8.533-3.823-8.533-8.533v-128c0.017-67.337,39.62-128.375,101.12-155.819
	c2.765-1.323,6.016-1.058,8.533,0.683c37.163,24.644,85.461,24.644,122.624,0c2.517-1.741,5.769-2.005,8.533-0.683
	c61.261,27.622,100.617,88.619,100.523,155.819v128C426.667,508.177,422.844,512,418.133,512z M102.4,494.933h307.2V375.467
	c-0.043-58.931-33.792-112.64-86.869-138.24c-40.943,24.994-92.433,24.994-133.376,0c-53.111,25.574-86.895,79.292-86.955,138.24
	V494.933z"/>
<g>
</g>
<g>
</g>
<g>
</g>
<g>
</g>
<g>
</g>
<g>
</g>
<g>
</g>
<g>
</g>
<g>
</g>
<g>
</g>
<g>
</g>
<g>
</g>
<g>
</g>
<g>
</g>
<g>
</g>
</svg>
