<svg xmlns="http://www.w3.org/2000/svg" xmlns:xlink="http://www.w3.org/1999/xlink" width="170.349" height="145.858" viewBox="0 0 170.349 145.858">
  <defs>
    <linearGradient id="linear-gradient" x1="-0.187" y1="1.301" x2="-0.185" y2="1.3" gradientUnits="objectBoundingBox">
      <stop offset="0" stop-color="#d4e1f4"/>
      <stop offset="0.172" stop-color="#d4e1f4"/>
      <stop offset="0.2" stop-color="#d4e1f4"/>
      <stop offset="0.2" stop-color="#dae4f4"/>
      <stop offset="0.201" stop-color="#ebebf4"/>
      <stop offset="0.201" stop-color="#f6f1f4"/>
      <stop offset="0.202" stop-color="#fdf4f4"/>
      <stop offset="0.205" stop-color="#fff5f4"/>
      <stop offset="0.252" stop-color="#fff5f4"/>
      <stop offset="0.26" stop-color="#fff5f4"/>
      <stop offset="0.26" stop-color="#d4e1f4"/>
      <stop offset="0.397" stop-color="#d4e1f4"/>
      <stop offset="0.42" stop-color="#d4e1f4"/>
      <stop offset="0.42" stop-color="#dae4f4"/>
      <stop offset="0.421" stop-color="#ebebf4"/>
      <stop offset="0.421" stop-color="#f6f1f4"/>
      <stop offset="0.422" stop-color="#fdf4f4"/>
      <stop offset="0.425" stop-color="#fff5f4"/>
      <stop offset="0.489" stop-color="#fff5f4"/>
      <stop offset="0.5" stop-color="#fff5f4"/>
      <stop offset="0.5" stop-color="#f9f2f4"/>
      <stop offset="0.5" stop-color="#e8ebf4"/>
      <stop offset="0.5" stop-color="#dde5f4"/>
      <stop offset="0.501" stop-color="#d6e2f4"/>
      <stop offset="0.501" stop-color="#d4e1f4"/>
      <stop offset="0.706" stop-color="#d4e1f4"/>
      <stop offset="0.74" stop-color="#d4e1f4"/>
      <stop offset="0.741" stop-color="#fff5f4"/>
      <stop offset="0.835" stop-color="#fff5f4"/>
      <stop offset="0.85" stop-color="#fff5f4"/>
      <stop offset="0.851" stop-color="#d4e1f4"/>
    </linearGradient>
  </defs>
  <g id="Logo" transform="translate(-5.251 -7)">
    <g id="fly" transform="translate(5.251 32.166)">
      <path id="Path_1" data-name="Path 1" d="M61.586,72.871l2.46,2.46,6.4-6.4,1.363,1.363-6.4,6.4,2.46,2.46L81.558,65.466h9.551l2.381-2.381-2.46-2.46-1.361,1.362H85.385l-1.734-1.734L84.8,59.106H83.428l-1.793-1.793v-1.37L80.488,57.09l-1.734-1.734V51.073l1.362-1.362-2.46-2.46-2.381,2.381v9.551Zm0,0" transform="translate(-56.712 -43.512)" fill="#57a4ff"/>
      <path id="Path_2" data-name="Path 2" d="M283.741,206.163a1.89,1.89,0,1,1-1.89-1.89A1.89,1.89,0,0,1,283.741,206.163Zm0,0" transform="translate(-257.807 -188.108)" fill="#006df0"/>
      <path id="Path_3" data-name="Path 3" d="M321.783,103.861l-2.018,2.018h-3.026l-1.793-1.793V101.06l2.018-2.018a3.408,3.408,0,0,1,4.819,4.819Zm0,0" transform="translate(-290.023 -90.285)" fill="#ffdaaa"/>
      <path id="Path_4" data-name="Path 4" d="M162.052,248.621l6.283,6.283-1.884,1.884-6.283-6.283Zm0,0" transform="translate(-147.494 -228.947)" fill="#ffe477"/>
      <path id="Path_5" data-name="Path 5" d="M436.12,195.312l2.9-2.9-1.572-1.572h-1.776l-2.011,2.011Zm0,0" transform="translate(-399.343 -175.738)" fill="#ffdaaa"/>
      <path id="Path_6" data-name="Path 6" d="M264.656,13.509l2.9-2.9,1.572,1.572v1.777l-2.011,2.011Zm0,0" transform="translate(-243.713 -9.77)" fill="#ffdaaa"/>
      <g id="Group_1" data-name="Group 1" transform="translate(0.84 12.844)">
        <path id="Path_7" data-name="Path 7" d="M166.683,277.43l-9.861,16.144-6.345-3.206,12.938-12.938Zm0,0" transform="translate(-139.409 -268.32)" fill="#ffe477"/>
        <path id="Path_8" data-name="Path 8" d="M49.821,165.138v-2.826L33.945,172l2.974,6.041Zm0,0" transform="translate(-32.098 -162.312)" fill="#ffe477"/>
        <path id="Path_9" data-name="Path 9" d="M10.609,375.045l1.874,1.875h1.171l3.449-3.449-2.46-2.46Zm0,0" transform="translate(-10.609 -354.496)" fill="#ffe477"/>
        <path id="Path_10" data-name="Path 10" d="M69.769,419.324l-3.449,3.448v1.171l1.875,1.875,4.034-4.034Zm0,0" transform="translate(-61.911 -398.986)" fill="#ffe477"/>
      </g>
      <path id="Path_11" data-name="Path 11" d="M63.961,72.872,77.649,59.183V49.632l1.193-1.193-1.187-1.187-2.381,2.381v9.551L61.586,72.872l2.46,2.46,1.187-1.187Zm0,0" transform="translate(-56.712 -43.512)" fill="#006df0"/>
      <path id="Path_12" data-name="Path 12" d="M317.319,101.056l2.018-2.018a3.4,3.4,0,0,1,1.222-.785,3.409,3.409,0,0,0-3.6.785l-2.018,2.018v3.026l1.793,1.793h2.374l-1.793-1.793Zm0,0" transform="translate(-290.022 -90.281)" fill="#fbb984"/>
      <path id="Path_13" data-name="Path 13" d="M162.542,250.509l.7-.7-1.187-1.187-1.884,1.884,6.283,6.283,1.187-1.187Zm0,0" transform="translate(-147.493 -228.951)" fill="#ffb655"/>
      <path id="Path_14" data-name="Path 14" d="M436.034,192.851l1.713-1.712-.3-.3h-1.776l-2.011,2.011,2.46,2.46,1.187-1.187Zm0,0" transform="translate(-399.343 -175.738)" fill="#fbb984"/>
      <path id="Path_15" data-name="Path 15" d="M267.03,13.509l1.712-1.713-1.187-1.187-2.9,2.9,2.46,2.46,1.187-1.187Zm0,0" transform="translate(-243.713 -9.77)" fill="#fbb984"/>
      <path id="Path_16" data-name="Path 16" d="M152.85,290.368l12.938-12.938h-2.374l-12.938,12.938,6.345,3.206.56-.917Zm0,0" transform="translate(-138.568 -255.476)" fill="#ffb655"/>
      <path id="Path_17" data-name="Path 17" d="M36.32,172l13.5-8.238v-1.449L33.945,172l2.974,6.041,1.591-1.591Zm0,0" transform="translate(-31.259 -149.469)" fill="#ffb655"/>
      <path id="Path_18" data-name="Path 18" d="M12.984,375.045l2.847-2.847-1.187-1.187-4.034,4.034,1.874,1.875h1.171l.6-.6Zm0,0" transform="translate(-9.77 -341.652)" fill="#ffb655"/>
      <path id="Path_19" data-name="Path 19" d="M68.695,423.944v-1.171l2.262-2.262-1.187-1.187-3.449,3.449v1.171l1.875,1.875,1.187-1.187Zm0,0" transform="translate(-61.072 -386.141)" fill="#ffb655"/>
      <path id="Path_20" data-name="Path 20" d="M263.737,206.163a1.89,1.89,0,1,1-1.89-1.89A1.89,1.89,0,0,1,263.737,206.163Zm0,0" transform="translate(-239.386 -188.108)" fill="#ffe477"/>
      <path id="Path_21" data-name="Path 21" d="M349.59,127.5h-1.633v-1.187H349.1l.054-.054.054.054h.137v.137l.648.648Zm.962-.962-.839-.839.651-.651a.847.847,0,0,0,.1-.121l.98.671a2.037,2.037,0,0,1-.241.29Zm1.241-1.989-1.186-.054c0-.012,0-.025,0-.038a.83.83,0,0,0-.245-.591l.839-.839a2.008,2.008,0,0,1,.593,1.43c0,.031,0,.061,0,.092Zm0,0" transform="translate(-320.422 -113.295)" fill="#fff"/>
      <path id="Path_22" data-name="Path 22" d="M138.23,355.468l-.839-.839,2.159-2.159.84.84Zm2.719-2.718-.839-.84.839-.84.84.84Zm1.4-1.4-.84-.839.84-.839.839.84Zm0,0" transform="translate(-126.518 -322.001)" fill="#fff"/>
      <path id="Path_23" data-name="Path 23" d="M215.615,348.452l-1.013-.619,2.965-4.854,1.013.619Zm3.378-5.53-1.013-.619.619-1.013,1.013.619Zm1.031-1.688-1.013-.619.619-1.013,1.013.618Zm0,0" transform="translate(-197.619 -312.727)" fill="#fff"/>
      <path id="Path_24" data-name="Path 24" d="M40.517,16.674l-2.166-2.165H36.083L32.71,17.881H28.919L27.778,16.74l.553-.553h1.657L32.18,14a4,4,0,0,0-5.659-5.659l-2.192,2.192v1.657l-.553.553L22.635,11.6V7.807l3.373-3.373V2.165L23.843,0,11.879,11.963l.84.839,5.25-5.25V9.144L15.83,11.283l.839.84,1.3-1.3v4.6L0,33.394l2.468,2.468H4.131l9.6-9.6.524.523L4.655,36.385v1.663l2.468,2.468L25.092,22.548h4.6l-1.3,1.3.84.84,2.139-2.139h1.591l-5.25,5.25.839.84L40.517,16.674ZM36.575,15.7h1.284l.979.978-2.06,2.06-1.621-1.621ZM25.516,11.02l1.844-1.845a2.814,2.814,0,0,1,3.98,3.98L29.5,15H26.962l-1.445-1.445Zm-.7-8.364V3.942L23.4,5.36,21.783,3.739l2.06-2.06ZM3.64,34.675H2.96L1.679,33.393,4.874,30.2l.811.811.811.81Zm3.483,4.163L5.842,37.556v-.679L8.7,34.022l1.621,1.621ZM11.157,34.8,9.536,33.183l6.4-6.4-2.2-2.2-6.4,6.4-.81-.811-.811-.81L20.992,14.081l-.839-.84-1,1V6.365l1.787-1.787L22.564,6.2,21.448,7.315V12.09l2.328,2.328.553-.553v.182l2.141,2.141h.182l-.553.553,2.328,2.328H33.2l1.116-1.116,1.621,1.621L34.151,21.36H26.279l1-1-.84-.84Zm0,0" transform="translate(0 0)"/>
      <path id="Path_25" data-name="Path 25" d="M170.791,307.617l-4.369-2.208-.535,1.06,5.347,2.7,9.18-15.029-1.013-.619Zm0,0" transform="translate(-152.759 -270.296)"/>
      <path id="Path_26" data-name="Path 26" d="M38.943,168.117l-14.756,9,2.475,5.028,1.065-.525-2-4.055,13.831-8.439Zm0,0" transform="translate(-22.273 -154.813)"/>
      <path id="Path_27" data-name="Path 27" d="M192.809,258.3l.84-.84,4.045,4.045-.84.84Zm0,0" transform="translate(-177.551 -237.09)"/>
      <path id="Path_28" data-name="Path 28" d="M169,282.109l.84-.84,4.045,4.045-.84.839Zm0,0" transform="translate(-155.63 -259.011)"/>
      <path id="Path_29" data-name="Path 29" d="M254.941,196.773a2.483,2.483,0,1,0,2.484,2.483A2.486,2.486,0,0,0,254.941,196.773Zm0,3.78a1.3,1.3,0,1,1,1.3-1.3A1.3,1.3,0,0,1,254.941,200.553Zm0,0" transform="translate(-232.479 -181.201)"/>
    </g>
    <path id="Path_30" data-name="Path 30" d="M127.3,69.157c0,.511,0,.993-.03,1.5-.03.451-.03.872-.06,1.324,0,.391-.03.782-.06,1.173a57.188,57.188,0,0,1-74.99,50.264,59.886,59.886,0,0,1-7.58-3.128A57.173,57.173,0,0,1,20.189,96.77c-.391-.632-.722-1.263-1.053-1.925a55.172,55.172,0,0,1-3.94-9.987L14.835,83.6c-.15-.6-.3-1.2-.391-1.8a48.73,48.73,0,0,1-1.173-7.309A51.712,51.712,0,0,1,13,69.157c0-.451,0-.9.03-1.354a2.278,2.278,0,0,1,.03-.451,54.333,54.333,0,0,1,1.564-11.791l.09-.361a57.152,57.152,0,0,1,85.878-34.412c1.414.872,2.767,1.835,4.091,2.828.632.481,1.233.963,1.835,1.444s1.143.963,1.715,1.474a56.225,56.225,0,0,1,10.2,12.092q.812,1.263,1.534,2.527a58.085,58.085,0,0,1,5.745,14.529c.06.271.12.511.18.782a54.447,54.447,0,0,1,1.233,8.031c.12,1.534.18,3.1.18,4.662Z" transform="translate(15.56 10.035)" fill="#6300a5"/>
    <path id="Path_34" data-name="Path 34" d="M119.924,31.449c-6.166,1.083-13.686,1.173-22.38,4.813C83.738,42.067,87.167,50.73,73.33,50.73a249.363,249.363,0,0,0-60.31,6.918,54.334,54.334,0,0,1,1.564-11.791c9.716-2.166,20.364-6.678,38.021-6.678,13.807,0,10.378-14.468,27.644-14.468a66.308,66.308,0,0,0,27.944-7.881,56.224,56.224,0,0,1,10.2,12.092q.812,1.263,1.534,2.527Z" transform="translate(15.6 19.739)" fill="#d0bafa"/>
    <path id="Path_35" data-name="Path 35" d="M125.838,39.474c0,.511,0,.993-.03,1.5-.03.451-.03.872-.06,1.324a31.825,31.825,0,0,0-19.161,7.851c-13.566,12.934-16.634,9.716-33.93,9.716-20.394,0-17,9.686-27.162,9.686-11.039,0-17.687-4.362-26.771-2.467-.391-.632-.722-1.263-1.053-1.925a55.173,55.173,0,0,1-3.94-9.987,229.929,229.929,0,0,1,55.528-8.242c33.96,0,20.364-19.372,44.127-19.372a75.852,75.852,0,0,0,11.039-.782,54.447,54.447,0,0,1,1.233,8.031c.12,1.534.18,3.1.18,4.662Z" transform="translate(17.026 39.718)" fill="#d0bafa"/>
    <path id="Path_36" data-name="Path 36" d="M22,19h6.016v6.016H22Z" transform="translate(33.632 24.096)" fill="#f98c96"/>
    <path id="Path_37" data-name="Path 37" d="M26,16h6.016v6.016H26Z" transform="translate(41.664 18.072)" fill="#f98c96"/>
    <path id="Path_40" data-name="Path 40" d="M24,43h6.016v6.016H24Z" transform="translate(37.648 72.288)" fill="#f98c96"/>
    <path id="Path_41" data-name="Path 41" d="M29,41h6.016v6.016H29Z" transform="translate(47.688 68.272)" fill="#f98c96"/>
    <g id="Group_2" data-name="Group 2" transform="translate(34.576 7)">
      <path id="Path_43" data-name="Path 43" d="M31,7h6.016v6.016H31Z" transform="translate(14.12 2.024)" fill="#fcf05a"/>
      <path id="Path_44" data-name="Path 44" d="M29,5h6.016v6.016H29Z" transform="translate(-10.952 10.04)" fill="#fcf05a"/>
      <path id="Path_45" data-name="Path 45" d="M33,5h6.016v6.016H33Z" transform="translate(0.088 -5)" fill="#fcf05a"/>
      <path id="Path_46" data-name="Path 46" d="M29,53h6.016v6.016H29Z" transform="translate(7.096 76.344)" fill="#fcf05a"/>
      <path id="Path_48" data-name="Path 48" d="M27,55h6.016v6.016H27Z" transform="translate(-27 80.36)" fill="#fcf05a"/>
      <path id="Path_49" data-name="Path 49" d="M31,55h6.016v6.016H31Z" transform="translate(77.288 47.272)" fill="#fcf05a"/>
    </g>
    <path id="Path_50" data-name="Path 50" d="M22,6h6.016v6.016H22Z" transform="translate(-5.472 121.32)" fill="#8ec13f"/>
    <path id="Path_51" data-name="Path 51" d="M41,9h6.016v6.016H41Z" transform="translate(77.8 10.032)" fill="#8ec13f"/>
    <path id="Path_54" data-name="Path 54" d="M141.208,70.569a183.036,183.036,0,0,1-35.7,29.719,233.117,233.117,0,0,1-39.285,20.545,156.086,156.086,0,0,1-18.529,6.227,79.473,79.473,0,0,1-19.943,3.008c-9.295,0-15.852-2.707-19.311-8-7.64-11.852,3.82-33.479,18.89-50.173A48.73,48.73,0,0,0,28.5,79.2c-13.476,16.063-20,32.577-15.311,39.766,3.971,6.166,16.033,7.1,33.088,2.647,3.971-1.023,8.092-2.346,12.363-3.91a222.026,222.026,0,0,0,43.8-22.139,177.608,177.608,0,0,0,38.743-33.66c13.175-15.7,19.311-30.561,14.047-38.653-4.392-6.768-20.394-4.332-34.652-.782-.6-.481-1.2-.963-1.835-1.444-1.324-.993-2.677-1.955-4.091-2.828,19.853-5.354,38.593-8.392,45.331,1.985,6.648,10.257-.03,29.839-18.77,50.384Z" transform="translate(1.506 12.623)" fill="#ed1c24"/>
    <g id="play-button" transform="translate(113.478 113.811) rotate(22)">
      <circle id="Ellipse_2" data-name="Ellipse 2" cx="14.498" cy="14.498" r="14.498" transform="translate(0.5 0.5)" fill="#a4c2f7"/>
      <ellipse id="Ellipse_3" data-name="Ellipse 3" cx="12.998" cy="14.498" rx="12.998" ry="14.498" transform="translate(2 0.5)" fill="url(#linear-gradient)"/>
      <path id="Path_58" data-name="Path 58" d="M1.5,14.5C1.5,6.491,7.319,0,14.5,0a14.5,14.5,0,0,0,0,29C7.319,29,1.5,22.5,1.5,14.5Z" transform="translate(0.5 0.5)" fill="#fff"/>
      <path id="Path_59" data-name="Path 59" d="M15,29.995a15,15,0,1,1,15-15A15,15,0,0,1,15,29.995ZM15,1a14,14,0,1,0,14,14A14,14,0,0,0,15,1Z" transform="translate(0 0)" fill="#428dff"/>
      <path id="Path_60" data-name="Path 60" d="M11,7.5,0,15V0Z" transform="translate(11.498 7.499)" fill="#7facfa"/>
      <path id="Path_61" data-name="Path 61" d="M8.267,5.785c-.846-1.35-3.415-2.564-4.783-3.492C2.309,1.495,1.086.871,0,0V12.9c.325-.183.646-.367.968-.551a.531.531,0,0,1,.217-.669,3.556,3.556,0,0,1,.629-.221.541.541,0,0,1,.262,0,16.659,16.659,0,0,1,3.15-2.484.531.531,0,0,1,.09-.031.57.57,0,0,1,.118-.094c.667-.392,1.352-.744,2.045-1.08a.529.529,0,0,1,.2-.67,2.553,2.553,0,0,1,1-.388.788.788,0,0,1,.173,0,.753.753,0,0,0-.594-.926Z" transform="translate(12.998 8.763)" fill="#a4c2f7"/>
      <path id="Path_62" data-name="Path 62" d="M.5,16a.5.5,0,0,1-.5-.5V.5A.5.5,0,0,1,.782.087l11,7.5a.5.5,0,0,1,0,.826l-11,7.5A.5.5,0,0,1,.5,16ZM1,1.446V14.551L10.611,8Z" transform="translate(10.998 6.999)" fill="#428dff"/>
    </g>
    <g id="superheroe" transform="translate(138.713 47.769)">
      <g id="Group_3" data-name="Group 3" transform="translate(6.895 15.174)">
        <path id="Path_63" data-name="Path 63" d="M112.632,197.767c.771.868.282,2.562-1.094,3.786s-8.771,6.54-9.543,5.674,5.376-7.593,6.752-8.816S111.861,196.9,112.632,197.767Z" transform="translate(-101.929 -197.266)" fill="#ea990a"/>
        <path id="Path_64" data-name="Path 64" d="M258.665,197.767c-.771.868-.282,2.562,1.094,3.786s8.771,6.54,9.543,5.674-5.376-7.593-6.752-8.816S259.436,196.9,258.665,197.767Z" transform="translate(-246.271 -197.266)" fill="#ea990a"/>
        <path id="Path_65" data-name="Path 65" d="M281.363,329.31c0,1.5-1.217,9.59-2.718,9.59s-2.716-8.09-2.716-9.59a2.717,2.717,0,0,1,5.434,0Z" transform="translate(-262.544 -316.645)" fill="#ea990a"/>
        <path id="Path_66" data-name="Path 66" d="M163.012,329.31c0,1.5-1.217,9.59-2.718,9.59s-2.716-8.09-2.716-9.59a2.717,2.717,0,0,1,5.434,0Z" transform="translate(-153.297 -316.645)" fill="#ea990a"/>
      </g>
      <path id="Path_67" data-name="Path 67" d="M167.749,194.521c0,9.718-3.431,6.481-7.665,6.481s-7.665,3.236-7.665-6.481c0-5.556,3.433-10.06,7.665-10.06S167.749,188.965,167.749,194.521Z" transform="translate(-141.64 -170.272)" fill="#efc206"/>
      <g id="Group_4" data-name="Group 4" transform="translate(11.816 32.468)">
        <path id="Path_68" data-name="Path 68" d="M165.9,422.085c.424,2.1,1.025,4.208,1.705,4.8h.739c.682-.588,1.284-2.7,1.707-4.8Z" transform="translate(-165.904 -422.085)" fill="#1267cc"/>
        <path id="Path_69" data-name="Path 69" d="M284.262,422.085c.424,2.1,1.025,4.208,1.705,4.8h.739c.682-.588,1.284-2.7,1.706-4.8Z" transform="translate(-275.158 -422.085)" fill="#1267cc"/>
      </g>
      <path id="Path_70" data-name="Path 70" d="M159.265,454.441c0,1.149-1.369,1.3-3.057,1.3s-3.057-.151-3.057-1.3a3.076,3.076,0,0,1,6.114,0Z" transform="translate(-142.316 -416.963)" fill="#2289ef"/>
      <path id="Path_71" data-name="Path 71" d="M159.265,487.219c0,1.149-1.369,1.3-3.057,1.3s-3.057-.151-3.057-1.3" transform="translate(-142.316 -449.74)" fill="#1267cc"/>
      <path id="Path_72" data-name="Path 72" d="M277.624,454.441c0,1.149-1.369,1.3-3.057,1.3s-3.057-.151-3.057-1.3a3.076,3.076,0,0,1,6.114,0Z" transform="translate(-251.57 -416.963)" fill="#2289ef"/>
      <path id="Path_73" data-name="Path 73" d="M277.624,487.219c0,1.149-1.369,1.3-3.057,1.3s-3.057-.151-3.057-1.3" transform="translate(-251.57 -449.74)" fill="#1267cc"/>
      <path id="Path_74" data-name="Path 74" d="M142.948,9.558c0,4.847-4.441,7.283-9.918,7.283s-9.921-2.436-9.921-7.283a9.926,9.926,0,0,1,19.839,0Z" transform="translate(-114.585)" fill="#efc206"/>
      <path id="Path_75" data-name="Path 75" d="M142.948,124.258c0,4.847-4.441,7.722-9.918,7.722s-9.921-2.876-9.921-7.722" transform="translate(-114.585 -114.7)" fill="#ea990a"/>
      <g id="Group_5" data-name="Group 5" transform="translate(7.158 0.404)">
        <path id="Path_76" data-name="Path 76" d="M116.715,18.576V11.835L105.354,5.246l.454,8.407Z" transform="translate(-105.354 -5.246)" fill="#020200"/>
        <path id="Path_77" data-name="Path 77" d="M251.077,18.576V11.835l11.361-6.589-.454,8.407Z" transform="translate(-239.867 -5.246)" fill="#020200"/>
      </g>
      <g id="Group_6" data-name="Group 6" transform="translate(6.895 22.124)">
        <path id="Path_78" data-name="Path 78" d="M103.554,287.744c-1.1,1.44-1.852,2.664-1.552,3s1.549-.238,3.065-1.134l.178-.177Z" transform="translate(-101.935 -287.734)" fill="#1267cc"/>
        <path id="Path_79" data-name="Path 79" d="M358.432,289.348c1.62.975,2.991,1.62,3.3,1.274s-.452-1.567-1.561-3.012Z" transform="translate(-338.702 -287.61)" fill="#1267cc"/>
      </g>
      <path id="Path_80" data-name="Path 80" d="M154,349.762h14.554a12.784,12.784,0,0,0,.289-1.869H153.71A12.722,12.722,0,0,0,154,349.762Z" transform="translate(-142.832 -321.132)" fill="#ce1332"/>
      <path id="Path_81" data-name="Path 81" d="M197.183,147.85v4.873l.114.065a16.206,16.206,0,0,0,8.214,0l.115-.067V147.85l-4.221,1.957Z" transform="translate(-182.961 -136.477)" fill="#e0b373"/>
      <path id="Path_82" data-name="Path 82" d="M197.183,162.619v3.737l.114.065a16.208,16.208,0,0,0,8.214,0l.115-.067v-3.737l-4.222,1.957Z" transform="translate(-182.961 -150.11)" fill="#f4cb89"/>
      <path id="Path_83" data-name="Path 83" d="M178.566,96.656l-3.635-1.918,1.818-1.515,2.02,1.918Z" transform="translate(-162.421 -86.052)" fill="#ebf0f2"/>
      <path id="Path_84" data-name="Path 84" d="M178.566,114.834l-3.635-1.918,1.818.454,2.02-.051Z" transform="translate(-162.421 -104.23)" fill="#adb9bc"/>
      <path id="Path_85" data-name="Path 85" d="M279.51,96.656l3.635-1.918-1.818-1.515-2.02,1.918Z" transform="translate(-258.769 -86.052)" fill="#ebf0f2"/>
      <path id="Path_86" data-name="Path 86" d="M279.51,114.834l3.635-1.918-1.818.454-2.02-.051Z" transform="translate(-258.769 -104.23)" fill="#adb9bc"/>
      <g id="Group_7" data-name="Group 7" transform="translate(0 21.014)">
        <path id="Path_87" data-name="Path 87" d="M152.824,273.187a12.856,12.856,0,0,0-.413,3.236c0,.842.027,1.58.077,2.238l3.727-1.28-2.206-.757,2.206-.757-2.206-.757,2.206-.757Z" transform="translate(-141.633 -273.187)" fill="#020200"/>
        <path id="Path_88" data-name="Path 88" d="M305.973,278.662c.05-.658.077-1.4.077-2.238a12.858,12.858,0,0,0-.413-3.236l-3.391,1.165,2.205.757-2.205.757,2.205.757-2.205.757Z" transform="translate(-279.941 -273.188)" fill="#020200"/>
        <path id="Path_89" data-name="Path 89" d="M16.105,324.545h.846v.846L12.3,329.2Z" transform="translate(-12.296 -320.594)" fill="#020200"/>
        <path id="Path_90" data-name="Path 90" d="M30.829,339.275h.846v.846l-4.655,3.81Z" transform="translate(-25.886 -334.191)" fill="#020200"/>
        <path id="Path_91" data-name="Path 91" d="M45.565,354h.846v.846l-4.655,3.811Z" transform="translate(-39.49 -347.788)" fill="#020200"/>
      </g>
      <circle id="Ellipse_4" data-name="Ellipse 4" cx="2.676" cy="2.676" r="2.676" transform="translate(3.513 22.823)" fill="#1267cc"/>
      <g id="Group_8" data-name="Group 8" transform="translate(29.966 24.965)">
        <path id="Path_92" data-name="Path 92" d="M432.155,324.545h-.846v.846l4.655,3.811Z" transform="translate(-429.043 -324.545)" fill="#020200"/>
        <path id="Path_93" data-name="Path 93" d="M417.417,339.275h-.846v.846l4.655,3.81Z" transform="translate(-415.439 -338.142)" fill="#020200"/>
        <path id="Path_94" data-name="Path 94" d="M402.695,354h-.846v.846l4.655,3.811Z" transform="translate(-401.849 -351.739)" fill="#020200"/>
      </g>
      <circle id="Ellipse_5" data-name="Ellipse 5" cx="2.676" cy="2.676" r="2.676" transform="translate(28.021 22.823)" fill="#1267cc"/>
    </g>
    <g id="superhero" transform="translate(22.477 97.175)">
      <g id="Group_9" data-name="Group 9" transform="translate(0.487 13.138)">
        <path id="Path_95" data-name="Path 95" d="M21.463,28l7.3,4.379a2.433,2.433,0,0,1,2.433,2.433,2.47,2.47,0,0,1-2.433,2.433,2.433,2.433,0,0,1-2.433-2.433l-4.866-.973,1.888,8.026a2.175,2.175,0,0,1,.058.5v.006a2.175,2.175,0,0,1-2.175,2.175h0a2.176,2.176,0,0,1-1.865-1.056l-1.313-2.35H15.138l-1.313,2.35a2.176,2.176,0,0,1-1.865,1.056h0a2.175,2.175,0,0,1-2.175-2.175v-.006a2.175,2.175,0,0,1,.058-.5l1.888-8.026-4.866.973a2.433,2.433,0,0,1-2.433,2.433A2.47,2.47,0,0,1,2,34.812a2.433,2.433,0,0,1,2.433-2.433L11.732,28" transform="translate(-2 -28)" fill="#2b62a1"/>
      </g>
      <g id="Group_10" data-name="Group 10" transform="translate(8.528 23.356)">
        <path id="Path_96" data-name="Path 96" d="M19.186,49l-.66,2.8,4.034,2.017,1.062-1.9L22.649,49Z" transform="translate(-18.526 -49)" fill="#b9b9b9"/>
      </g>
      <g id="Group_11" data-name="Group 11" transform="translate(16.544 23.356)">
        <path id="Path_97" data-name="Path 97" d="M39.437,49l.66,2.8-4.034,2.017L35,51.919,35.973,49Z" transform="translate(-35 -49)" fill="#b9b9b9"/>
      </g>
      <g id="Group_12" data-name="Group 12" transform="translate(0.487 16.621)">
        <path id="Path_98" data-name="Path 98" d="M5.926,35.159l-1.493.9A2.433,2.433,0,0,0,2,38.488a2.47,2.47,0,0,0,2.433,2.433,2.433,2.433,0,0,0,2.433-2.433l.448-.09Z" transform="translate(-2 -35.159)" fill="#b9b9b9"/>
      </g>
      <g id="Group_13" data-name="Group 13" transform="translate(7.785 13.44)">
        <path id="Path_99" data-name="Path 99" d="M18.93,28.621,17,29.779l.936,4.678,1.5-.3Z" transform="translate(-17 -28.621)" fill="#b9b9b9"/>
      </g>
      <g id="Group_14" data-name="Group 14" transform="translate(9.188 21.409)">
        <path id="Path_100" data-name="Path 100" d="M19.882,46.946h4.437V45H20.34Z" transform="translate(-19.882 -45)" fill="#ca5057"/>
      </g>
      <g id="Group_15" data-name="Group 15" transform="translate(12.037 20.639)">
        <rect id="Rectangle_5" data-name="Rectangle 5" width="4.995" height="3.33" transform="translate(0 0)" fill="#b9b9b9"/>
      </g>
      <g id="Group_16" data-name="Group 16" transform="translate(17.032 13.979)">
        <circle id="Ellipse_6" data-name="Ellipse 6" cx="6.66" cy="6.66" r="6.66" transform="translate(0 0)" fill="#ca5057"/>
      </g>
      <g id="Group_17" data-name="Group 17" transform="translate(17.032 18.974)">
        <ellipse id="Ellipse_7" data-name="Ellipse 7" cx="4.995" cy="2.497" rx="4.995" ry="2.497" transform="translate(0 0)" fill="#efefef"/>
      </g>
      <g id="Group_18" data-name="Group 18" transform="translate(22.027 18.974)">
        <circle id="Ellipse_8" data-name="Ellipse 8" cx="2.497" cy="2.497" r="2.497" transform="translate(0 0)" fill="#2b62a1"/>
      </g>
      <g id="Group_19" data-name="Group 19" transform="translate(20.923 18.003)">
        <path id="Path_101" data-name="Path 101" d="M46.433,41.893l-1.946.973.487-1.46L44,39.946h1.46L46.433,38l.973,1.946h1.46l-.973,1.46.487,1.46Z" transform="translate(-44 -38)" fill="#efefef"/>
      </g>
      <g id="Group_20" data-name="Group 20" transform="translate(12.651 15.084)">
        <path id="Path_102" data-name="Path 102" d="M29.433,35.893l-1.946.973.487-1.46L27,33.946h1.46L29.433,32l.973,1.946h1.46l-.973,1.46.487,1.46Z" transform="translate(-27 -32)" fill="#efefef"/>
      </g>
      <g id="Group_21" data-name="Group 21" transform="translate(8.707 0.66)">
        <circle id="Ellipse_9" data-name="Ellipse 9" cx="6.66" cy="6.66" r="6.66" transform="translate(0)" fill="#2b62a1"/>
      </g>
      <g id="Group_22" data-name="Group 22" transform="translate(7.785 0.524)">
        <ellipse id="Ellipse_10" data-name="Ellipse 10" cx="6.569" cy="7.262" rx="6.569" ry="7.262" fill="#4b88ba"/>
      </g>
      <g id="Group_23" data-name="Group 23" transform="translate(11.049 11.191)">
        <path id="Path_103" data-name="Path 103" d="M27.743,24a4.381,4.381,0,0,0-4.035,2.674,7.29,7.29,0,0,0,8.069,0A4.38,4.38,0,0,0,27.743,24Z" transform="translate(-23.708 -24)" fill="#d8c4a9"/>
      </g>
      <g id="Group_24" data-name="Group 24" transform="translate(9.732 6.292)">
        <path id="Path_104" data-name="Path 104" d="M24.893,15.425a2.231,2.231,0,0,1-1.946,2.433A2.231,2.231,0,0,1,21,15.425a2.832,2.832,0,0,1,.409-1.493h0Z" transform="translate(-21 -13.932)" fill="#d8c4a9"/>
      </g>
      <g id="Group_25" data-name="Group 25" transform="translate(16.544 6.292)">
        <path id="Path_105" data-name="Path 105" d="M35,15.425a2.231,2.231,0,0,0,1.946,2.433,2.231,2.231,0,0,0,1.946-2.433,2.832,2.832,0,0,0-.409-1.493h0Z" transform="translate(-35 -13.932)" fill="#d8c4a9"/>
      </g>
      <g id="Group_26" data-name="Group 26" transform="translate(7.299 0)">
        <path id="Path_106" data-name="Path 106" d="M23.785,16.57A7.785,7.785,0,1,1,31.57,8.785,7.794,7.794,0,0,1,23.785,16.57Zm0-14.6A6.812,6.812,0,1,0,30.6,8.785,6.82,6.82,0,0,0,23.785,1.973Z" transform="translate(-16 -1)"/>
      </g>
      <g id="Group_27" data-name="Group 27" transform="translate(0 12.721)">
        <path id="Path_107" data-name="Path 107" d="M20.721,44.59A2.675,2.675,0,0,1,18.439,43.3l-1.181-2.114H14.91l-1.174,2.1a2.663,2.663,0,0,1-4.88-1.971l1.715-7.289-3.76.752a2.923,2.923,0,0,1-2.891,2.515A2.959,2.959,0,0,1,1,34.372a2.923,2.923,0,0,1,2.779-2.916l7.189-4.313.5.834-7.3,4.379a.486.486,0,0,1-.25.069,1.948,1.948,0,0,0-1.946,1.946,1.973,1.973,0,0,0,1.946,1.946,1.948,1.948,0,0,0,1.946-1.946.486.486,0,0,1,.391-.477l4.866-.973a.487.487,0,0,1,.569.588L9.8,41.536a1.671,1.671,0,0,0-.045.387,1.688,1.688,0,0,0,3.136.874L14.2,40.46a.487.487,0,0,1,.425-.249h2.919a.487.487,0,0,1,.425.249l1.313,2.35a1.69,1.69,0,0,0,3.095-1.223l.954-.193a2.666,2.666,0,0,1-2.608,3.2Z" transform="translate(-1 -27.143)"/>
      </g>
      <g id="Group_28" data-name="Group 28" transform="translate(19.7 12.72)">
        <rect id="Rectangle_6" data-name="Rectangle 6" width="0.973" height="3.017" transform="translate(0 0.834) rotate(-59.036)"/>
      </g>
      <g id="Group_29" data-name="Group 29" transform="translate(8.707 20.639)">
        <rect id="Rectangle_7" data-name="Rectangle 7" width="8.325" transform="translate(0 0)"/>
      </g>
      <g id="Group_30" data-name="Group 30" transform="translate(8.707 23.969)">
        <rect id="Rectangle_8" data-name="Rectangle 8" width="8.325" transform="translate(0 0)"/>
      </g>
      <g id="Group_31" data-name="Group 31" transform="translate(8.54 25.84)">
        <rect id="Rectangle_9" data-name="Rectangle 9" width="0.973" height="4.352" transform="translate(0 0.87) rotate(-63.435)"/>
      </g>
      <g id="Group_32" data-name="Group 32" transform="translate(17.298 26.212)">
        <rect id="Rectangle_10" data-name="Rectangle 10" width="3.518" height="0.973" transform="translate(0 1.573) rotate(-26.565)"/>
      </g>
      <g id="Group_33" data-name="Group 33" transform="translate(16.544 14.111)">
        <path id="Path_108" data-name="Path 108" d="M41.812,43.624a6.812,6.812,0,1,1,6.812-6.812A6.82,6.82,0,0,1,41.812,43.624Zm0-12.651a5.839,5.839,0,1,0,5.839,5.839A5.845,5.845,0,0,0,41.812,30.973Z" transform="translate(-35 -30)"/>
      </g>
      <g id="Group_34" data-name="Group 34" transform="translate(18.49 16.057)">
        <path id="Path_109" data-name="Path 109" d="M43.866,43.732a4.866,4.866,0,1,1,4.866-4.866A4.871,4.871,0,0,1,43.866,43.732Zm0-8.758a3.893,3.893,0,1,0,3.893,3.893A3.9,3.9,0,0,0,43.866,34.973Z" transform="translate(-39 -34)"/>
      </g>
      <g id="Group_35" data-name="Group 35" transform="translate(9.245 5.806)">
        <path id="Path_110" data-name="Path 110" d="M22.433,17.831A2.713,2.713,0,0,1,20,14.911a3.3,3.3,0,0,1,.483-1.75.487.487,0,0,1,.6-.19l3.483,1.493a.486.486,0,0,1,.294.447A2.713,2.713,0,0,1,22.433,17.831Zm-1.306-3.784a2.475,2.475,0,0,0-.154.864c0,1.073.655,1.946,1.46,1.946a1.666,1.666,0,0,0,1.441-1.633Z" transform="translate(-20 -12.931)"/>
      </g>
      <g id="Group_36" data-name="Group 36" transform="translate(16.057 5.805)">
        <path id="Path_111" data-name="Path 111" d="M36.433,17.83A2.713,2.713,0,0,1,34,14.911a.486.486,0,0,1,.295-.447l3.483-1.493a.485.485,0,0,1,.6.19,3.3,3.3,0,0,1,.483,1.75A2.713,2.713,0,0,1,36.433,17.83Zm-1.441-2.607a1.666,1.666,0,0,0,1.441,1.633c.8,0,1.46-.873,1.46-1.946a2.475,2.475,0,0,0-.154-.864Z" transform="translate(-34 -12.931)"/>
      </g>
      <g id="Group_37" data-name="Group 37" transform="translate(10.6 10.705)">
        <path id="Path_112" data-name="Path 112" d="M23.681,26.352l-.9-.379a4.868,4.868,0,0,1,8.968,0l-.9.379a3.895,3.895,0,0,0-7.175,0Z" transform="translate(-22.784 -23)"/>
      </g>
      <g id="Group_38" data-name="Group 38" transform="translate(12.037 12.315)">
        <rect id="Rectangle_11" data-name="Rectangle 11" width="4.995" transform="translate(0 0)"/>
      </g>
      <g id="Group_39" data-name="Group 39" transform="translate(12.195 1.946)">
        <path id="Path_113" data-name="Path 113" d="M30.929,9.55l.911-.342L30.38,5.316A.486.486,0,0,0,29.925,5H27.979a.487.487,0,0,0-.456.316l-1.46,3.893.911.342L27.4,8.406h3.1Zm-3.16-2.117.547-1.46h1.272l.547,1.46Z" transform="translate(-26.063 -5)" fill="#fff"/>
      </g>
      <g id="Group_40" data-name="Group 40" transform="translate(12.164 14.619)">
        <path id="Path_114" data-name="Path 114" d="M30.865,36.862a.492.492,0,0,1-.217-.051l-1.729-.865-1.729.864a.487.487,0,0,1-.679-.589l.411-1.234-.841-1.262a.486.486,0,0,1,.405-.756h1.159l.839-1.677a.507.507,0,0,1,.87,0l.838,1.677h1.159a.486.486,0,0,1,.4.756l-.841,1.262.411,1.234a.487.487,0,0,1-.461.641Zm-1.946-1.946a.487.487,0,0,1,.217.051l.9.448-.115-.345a.485.485,0,0,1,.057-.424l.469-.7h-.55a.487.487,0,0,1-.435-.269L28.919,32.6l-.538,1.076a.487.487,0,0,1-.435.269H27.4l.469.7a.488.488,0,0,1,.057.424l-.115.345.9-.448A.487.487,0,0,1,28.919,34.915Z" transform="translate(-25.999 -31.044)"/>
      </g>
      <g id="Group_41" data-name="Group 41" transform="translate(9.247 13.58)">
        <rect id="Rectangle_12" data-name="Rectangle 12" width="0.973" height="5.374" transform="translate(0 0.088) rotate(-5.192)"/>
      </g>
      <g id="Group_42" data-name="Group 42" transform="translate(7.308 14.502)">
        <rect id="Rectangle_13" data-name="Rectangle 13" width="0.973" height="4.962" transform="translate(0 0.191) rotate(-11.309)"/>
      </g>
      <g id="Group_43" data-name="Group 43" transform="translate(3.931 16.351)">
        <rect id="Rectangle_14" data-name="Rectangle 14" width="0.973" height="3.706" transform="translate(0 0.383) rotate(-23.199)"/>
      </g>
      <g id="Group_44" data-name="Group 44" transform="translate(12.037 20.639)">
        <rect id="Rectangle_15" data-name="Rectangle 15" height="3.33" transform="translate(0 0)"/>
      </g>
      <g id="Group_45" data-name="Group 45" transform="translate(12.189 23.203)">
        <rect id="Rectangle_16" data-name="Rectangle 16" width="0.973" height="3.078" transform="matrix(0.949, -0.316, 0.316, 0.949, 0, 0.308)"/>
      </g>
      <g id="Group_46" data-name="Group 46" transform="translate(16.081 23.203)">
        <rect id="Rectangle_17" data-name="Rectangle 17" width="3.078" height="0.973" transform="translate(0 2.919) rotate(-71.554)"/>
      </g>
      <g id="Group_47" data-name="Group 47" transform="translate(12.037 8.985)">
        <circle id="Ellipse_11" data-name="Ellipse 11" transform="translate(0 0)"/>
      </g>
      <g id="Group_48" data-name="Group 48" transform="translate(17.032 8.985)">
        <circle id="Ellipse_12" data-name="Ellipse 12" transform="translate(0 0)"/>
      </g>
    </g>
    <g id="superheroe_1_" data-name="superheroe (1)" transform="translate(79.696 52.559)">
      <g id="Group_49" data-name="Group 49" transform="translate(0 16.279)">
        <path id="Path_115" data-name="Path 115" d="M113.411,197.8c.827.931.3,2.748-1.173,4.062s-9.409,7.016-10.238,6.087,5.768-8.146,7.243-9.458S112.583,196.873,113.411,197.8Z" transform="translate(-101.929 -197.266)" fill="#ce1332"/>
        <path id="Path_116" data-name="Path 116" d="M258.692,197.8c-.828.931-.3,2.748,1.173,4.062s9.409,7.016,10.238,6.087-5.768-8.146-7.243-9.458S259.519,196.873,258.692,197.8Z" transform="translate(-245.396 -197.266)" fill="#ce1332"/>
      </g>
      <g id="Group_50" data-name="Group 50" transform="translate(4.592 26.951)">
        <path id="Path_117" data-name="Path 117" d="M281.758,329.508c0,1.609-1.305,10.288-2.916,10.288s-2.913-8.679-2.913-10.288a2.915,2.915,0,1,1,5.829,0Z" transform="translate(-266.163 -326.593)" fill="#b50b30"/>
        <path id="Path_118" data-name="Path 118" d="M163.407,329.508c0,1.609-1.305,10.288-2.916,10.288s-2.913-8.679-2.913-10.288a2.915,2.915,0,1,1,5.829,0Z" transform="translate(-157.578 -326.593)" fill="#b50b30"/>
      </g>
      <path id="Path_119" data-name="Path 119" d="M168.864,195.253c0,10.425-3.68,6.953-8.223,6.953s-8.223,3.472-8.223-6.953c0-5.961,3.683-10.792,8.223-10.792S168.864,189.293,168.864,195.253Z" transform="translate(-148.252 -169.239)" fill="#ce1332"/>
      <path id="Path_120" data-name="Path 120" d="M182.107,187.581a16.644,16.644,0,0,0,11.545,0,6.911,6.911,0,0,0-11.545,0Z" transform="translate(-175.491 -169.247)" fill="#b50b30"/>
      <g id="Group_51" data-name="Group 51" transform="translate(4.227 34.831)">
        <path id="Path_121" data-name="Path 121" d="M165.9,422.085c.454,2.253,1.1,4.514,1.829,5.146h.792c.731-.631,1.377-2.893,1.831-5.146Z" transform="translate(-164.852 -422.085)" fill="#f2eb03"/>
        <path id="Path_122" data-name="Path 122" d="M284.262,422.085c.454,2.253,1.1,4.514,1.829,5.146h.792c.732-.631,1.377-2.893,1.83-5.146Z" transform="translate(-273.442 -422.085)" fill="#f2eb03"/>
        <path id="Path_123" data-name="Path 123" d="M159.71,454.64c0,1.232-1.469,1.395-3.279,1.395s-3.279-.162-3.279-1.395a3.3,3.3,0,0,1,6.559,0Z" transform="translate(-153.151 -449.265)" fill="#f2eb03"/>
      </g>
      <path id="Path_124" data-name="Path 124" d="M159.71,487.219c0,1.232-1.469,1.395-3.279,1.395s-3.279-.162-3.279-1.395" transform="translate(-148.924 -447.013)" fill="#efc206"/>
      <path id="Path_125" data-name="Path 125" d="M278.069,454.64c0,1.232-1.469,1.395-3.279,1.395s-3.279-.162-3.279-1.395a3.3,3.3,0,0,1,6.559,0Z" transform="translate(-257.516 -414.435)" fill="#f2eb03"/>
      <path id="Path_126" data-name="Path 126" d="M278.069,487.219c0,1.232-1.469,1.395-3.279,1.395s-3.279-.162-3.279-1.395" transform="translate(-257.516 -447.013)" fill="#efc206"/>
      <path id="Path_127" data-name="Path 127" d="M144.392,10.254c0,5.2-4.765,7.813-10.64,7.813s-10.643-2.614-10.643-7.813S127.875,0,133.752,0,144.392,5.053,144.392,10.254Z" transform="translate(-121.361)" fill="#ce1332"/>
      <g id="Group_52" data-name="Group 52" transform="translate(0.001 10.254)">
        <path id="Path_128" data-name="Path 128" d="M144.392,124.258c0,5.2-4.765,8.284-10.64,8.284s-10.643-3.085-10.643-8.284" transform="translate(-121.362 -124.258)" fill="#b50b30"/>
        <path id="Path_129" data-name="Path 129" d="M103.672,287.744c-1.185,1.545-1.987,2.857-1.665,3.219s1.662-.255,3.288-1.216l.19-.19Z" transform="translate(-101.935 -274.253)" fill="#b50b30"/>
        <path id="Path_130" data-name="Path 130" d="M358.432,289.475c1.738,1.046,3.208,1.738,3.539,1.366s-.485-1.682-1.675-3.231Z" transform="translate(-337.266 -274.13)" fill="#b50b30"/>
      </g>
      <ellipse id="Ellipse_13" data-name="Ellipse 13" cx="5.525" cy="3.21" rx="5.525" ry="3.21" transform="translate(6.864 20.126)" fill="#dddcca"/>
      <path id="Path_131" data-name="Path 131" d="M196.157,282.75c0,1.772-2.474,3.21-5.525,3.21s-5.525-1.438-5.525-3.21" transform="translate(-178.243 -259.417)" fill="#cccab6"/>
      <path id="Path_132" data-name="Path 132" d="M154.019,349.9h15.613a13.729,13.729,0,0,0,.31-2H153.71A13.624,13.624,0,0,0,154.019,349.9Z" transform="translate(-149.437 -319.184)" fill="#efc206"/>
      <path id="Path_133" data-name="Path 133" d="M197.183,147.85v5.228l.122.07a17.386,17.386,0,0,0,8.811,0l.123-.071V147.85l-4.528,2.1Z" transform="translate(-189.323 -135.649)" fill="#e0b373"/>
      <path id="Path_134" data-name="Path 134" d="M197.183,162.619v4.009l.122.07a17.388,17.388,0,0,0,8.811,0l.123-.072v-4.009l-4.528,2.1Z" transform="translate(-189.323 -149.2)" fill="#f4cb89"/>
      <path id="Path_135" data-name="Path 135" d="M178.831,96.905l-3.9-2.057,1.95-1.625,2.167,2.057Z" transform="translate(-168.907 -85.53)" fill="#ebf0f2"/>
      <path id="Path_136" data-name="Path 136" d="M178.831,114.973l-3.9-2.057,1.95.487,2.167-.055Z" transform="translate(-168.907 -103.598)" fill="#adb9bc"/>
      <path id="Path_137" data-name="Path 137" d="M279.524,96.905l3.9-2.057-1.95-1.625-2.166,2.057Z" transform="translate(-264.671 -85.53)" fill="#ebf0f2"/>
      <path id="Path_138" data-name="Path 138" d="M279.524,114.973l3.9-2.057-1.95.487-2.166-.055Z" transform="translate(-264.671 -103.598)" fill="#adb9bc"/>
      <g id="Group_53" data-name="Group 53" transform="translate(2.625 1.733)">
        <path id="Path_139" data-name="Path 139" d="M133.742,27.175V21l2.709,2.709Z" transform="translate(-133.742 -21)" fill="#efc206"/>
        <path id="Path_140" data-name="Path 140" d="M340.267,27.175V21l-2.709,2.709Z" transform="translate(-320.739 -21)" fill="#efc206"/>
      </g>
      <path id="Path_141" data-name="Path 141" d="M226.119,256.945l-2.068,2.068h1.621l-.95,1.984,3.743-2.319h-1.955l1.732-1.733Z" transform="translate(-213.973 -235.742)" fill="#eac00f"/>
    </g>
  </g>
</svg>
